<?xml version="1.0" standalone="no"?>
<!DOCTYPE svg PUBLIC "-//W3C//DTD SVG 20010904//EN"
 "http://www.w3.org/TR/2001/REC-SVG-20010904/DTD/svg10.dtd">
<svg version="1.0" xmlns="http://www.w3.org/2000/svg"
 width="803.000000pt" height="803.000000pt" viewBox="0 0 803.000000 803.000000"
 preserveAspectRatio="xMidYMid meet">
<metadata>
Created by potrace 1.14, written by Peter Selinger 2001-2017
</metadata>
<g transform="translate(0.000000,803.000000) scale(0.100000,-0.100000)"
fill="#000000" stroke="none">
<path d="M244 6201 c-2 -2 -4 -814 -4 -1803 l0 -1798 63 0 c260 -3 2447 -5
2447 -3 0 2 -46 25 -102 53 -362 182 -649 472 -821 833 l-42 87 -288 -1 c-158
-1 -290 1 -294 5 -3 3 -6 597 -6 1319 l0 1312 -474 0 c-261 0 -477 -2 -479 -4z"/>
<path d="M3405 6200 c-27 -4 -68 -10 -91 -13 -76 -11 -189 -39 -279 -69 -452
-150 -834 -482 -1046 -908 -132 -263 -192 -528 -188 -827 1 -83 6 -178 11
-210 4 -32 11 -74 13 -93 12 -81 64 -258 102 -350 119 -288 284 -515 518 -712
93 -78 83 -70 177 -131 244 -158 492 -246 788 -282 52 -6 343 -7 380 -1 14 2
43 7 65 10 98 14 127 20 237 52 198 56 375 139 529 246 117 81 155 113 265
223 270 271 434 588 504 976 15 85 18 143 15 314 -1 116 -6 228 -10 250 -12
67 -33 157 -39 163 -5 4 -1455 7 -1563 3 l-23 -1 0 -443 0 -444 286 1 c157 1
288 -2 290 -6 6 -10 -32 -66 -91 -133 -102 -118 -275 -222 -440 -266 -116 -31
-308 -31 -424 0 -159 42 -303 123 -403 227 -84 87 -103 112 -147 188 -120 211
-150 466 -79 694 75 245 264 455 498 553 124 52 165 61 320 64 128 3 155 1
230 -20 133 -36 205 -69 293 -131 52 -37 57 -39 57 -23 0 6 18 52 41 102 104
232 249 440 423 608 l49 47 -94 62 c-165 107 -400 208 -556 240 -181 37 -221
42 -388 45 -99 1 -202 -1 -230 -5z"/>
<path d="M5858 6205 c-1 -1 -30 -6 -63 -10 -108 -13 -122 -16 -215 -39 -341
-87 -635 -256 -870 -500 -85 -88 -147 -163 -200 -241 -18 -27 -42 -62 -51 -77
-38 -56 -159 -310 -159 -333 0 -3 239 -5 531 -5 l531 0 61 53 c34 29 76 63 92
74 89 61 234 123 325 138 25 4 54 9 65 11 30 6 216 6 245 0 14 -3 39 -8 55
-12 141 -27 310 -115 420 -217 l50 -46 533 -1 533 0 -6 23 c-11 35 -75 176
-108 237 -138 252 -344 478 -582 637 -240 161 -469 248 -783 299 -39 6 -398
15 -404 9z"/>
<path d="M5977 4944 c-6 -6 -24 -9 -69 -13 -10 0 -18 -8 -18 -17 0 -8 -4 -12
-10 -9 -5 3 -10 1 -10 -4 0 -15 15 -14 29 3 7 9 27 14 47 13 30 -2 36 -6 41
-29 3 -17 10 -25 17 -21 6 4 5 -1 -2 -10 -12 -14 -11 -20 5 -41 25 -34 51 -39
65 -13 6 12 10 24 9 26 -3 4 37 28 62 37 11 4 16 13 13 21 -3 8 -6 18 -6 22 0
4 -13 14 -29 24 -28 17 -130 24 -144 11z"/>
<path d="M5839 4895 c-1 -3 -2 -9 -3 -14 0 -5 -4 -13 -8 -17 -5 -4 -8 -16 -8
-26 0 -11 -5 -16 -10 -13 -6 3 -7 17 -4 31 4 14 2 24 -5 24 -6 0 -8 -8 -4 -17
6 -16 5 -17 -13 -3 -17 14 -18 14 -6 -2 9 -11 10 -18 2 -23 -6 -3 -7 -12 -4
-18 4 -7 4 -9 -1 -5 -4 4 -14 3 -21 -3 -8 -7 -14 -7 -19 1 -3 5 0 10 8 10 8 0
17 7 21 15 3 9 0 15 -9 15 -8 0 -15 -4 -15 -10 0 -5 -6 -9 -12 -7 -7 1 -12 -4
-10 -10 1 -7 -4 -13 -10 -13 -9 0 -8 -4 2 -11 12 -8 10 -9 -8 -4 -18 5 -30 -1
-53 -27 -68 -75 -85 -120 -95 -248 -5 -53 -2 -74 16 -112 21 -48 34 -64 24
-30 -4 14 -2 13 10 -3 8 -11 21 -28 28 -37 7 -9 25 -19 41 -22 44 -8 70 -17
99 -37 14 -11 36 -19 48 -19 21 0 22 -3 16 -41 -6 -35 -3 -47 19 -75 14 -19
39 -41 55 -49 22 -12 33 -29 49 -83 12 -39 34 -82 51 -100 33 -37 60 -44 36
-10 -17 23 -21 58 -8 58 4 0 16 19 27 43 11 23 30 53 42 66 13 13 23 32 23 43
0 11 7 26 15 35 23 23 14 36 -36 53 -24 8 -48 21 -52 27 -4 7 -35 26 -68 43
-67 33 -136 40 -145 15 -10 -26 -53 -18 -60 10 -4 16 -13 25 -26 25 -17 0 -19
5 -14 25 8 30 -10 34 -19 5 -13 -43 -56 -14 -52 35 4 49 93 78 104 35 3 -11 9
-17 14 -15 4 3 3 17 -3 30 -10 21 -8 29 10 48 12 13 22 33 22 45 0 11 8 27 18
34 9 7 22 22 28 33 6 11 21 20 32 20 12 0 27 7 34 14 9 9 9 12 1 7 -6 -3 -16
1 -21 11 -9 15 -12 15 -29 3 -16 -14 -17 -14 -4 3 7 9 18 17 23 17 5 0 25 7
46 16 l37 15 -25 21 c-14 11 -25 24 -25 28 0 17 -15 22 -29 11 -12 -10 -17 -8
-25 8 -14 24 -38 18 -46 -12 -13 -45 -28 -77 -36 -77 -5 0 -9 7 -9 15 0 13
-17 20 -42 17 -3 -1 -8 5 -11 12 -6 14 56 78 87 89 11 4 16 13 12 22 -3 10 1
15 12 15 45 -1 54 -39 9 -41 -16 0 -13 -3 13 -13 42 -15 53 -11 45 15 -5 14
-3 17 9 13 22 -8 20 1 -6 31 -14 16 -32 25 -52 25 -24 0 -27 3 -16 10 10 6 11
10 3 10 -7 0 -14 -2 -14 -5z"/>
<path d="M6360 4845 c7 -8 10 -24 7 -34 -6 -24 16 -57 31 -47 8 5 12 -1 12
-16 0 -18 2 -20 10 -8 6 10 10 11 10 3 0 -7 4 -13 10 -13 12 0 3 26 -23 65
-19 28 -18 28 14 -5 19 -19 35 -46 36 -59 3 -19 -1 -22 -20 -17 -26 6 -41 -2
-50 -26 -3 -10 -13 -18 -22 -18 -12 0 -11 -4 5 -20 27 -27 25 -41 -6 -36 -24
5 -25 3 -22 -32 3 -32 7 -37 30 -40 22 -3 28 2 38 32 11 35 41 49 55 26 3 -5
12 -7 19 -4 8 3 21 -11 35 -38 12 -24 19 -32 15 -19 -5 17 -3 21 6 16 10 -6
12 0 7 26 -3 19 -3 28 0 21 2 -6 10 -9 15 -6 6 4 9 3 5 -2 -3 -5 2 -18 10 -29
15 -19 15 -19 8 5 -24 83 -93 183 -169 248 -49 41 -93 60 -66 27z"/>
<path d="M6180 4841 c-25 -8 -25 -8 7 -15 37 -9 63 1 42 15 -16 10 -15 10 -49
0z"/>
<path d="M5800 4790 c0 -5 5 -10 10 -10 6 0 10 5 10 10 0 6 -4 10 -10 10 -5 0
-10 -4 -10 -10z"/>
<path d="M6310 4773 c0 -3 7 -14 16 -24 8 -9 17 -26 18 -36 3 -17 46 -33 46
-16 0 8 -68 83 -76 83 -2 0 -4 -3 -4 -7z"/>
<path d="M6300 4730 c0 -23 15 -27 23 -6 3 8 -1 17 -9 20 -9 4 -14 -1 -14 -14z"/>
<path d="M5957 4673 c-13 -12 -7 -19 18 -21 18 -1 23 2 19 13 -6 16 -26 20
-37 8z"/>
<path d="M6500 4571 c5 -11 7 -28 4 -38 -5 -17 -5 -17 6 -1 8 13 8 23 0 38 -6
11 -13 20 -16 20 -2 0 0 -9 6 -19z"/>
<path d="M6566 4553 c-13 -14 -5 -52 13 -58 13 -4 17 -12 13 -30 -5 -29 -14
-31 -32 -10 -7 8 -17 12 -22 9 -13 -9 -48 26 -48 48 0 22 -5 23 -90 14 -16 -2
-30 -13 -39 -32 -8 -16 -17 -31 -20 -34 -22 -18 -34 -46 -37 -88 -4 -38 0 -55
19 -83 21 -31 27 -34 65 -31 45 4 76 -15 62 -38 -4 -7 -8 -28 -8 -47 0 -18 -8
-46 -18 -61 -23 -34 -74 -134 -74 -145 0 -13 40 13 85 54 51 47 70 51 29 7
l-29 -33 32 29 c18 16 30 32 28 36 -4 6 37 75 78 133 10 14 19 36 20 49 0 12
6 26 11 30 13 9 20 123 12 201 -5 45 -12 66 -25 74 -11 7 -22 9 -25 6z m31
-185 c-3 -8 -6 -5 -6 6 -1 11 2 17 5 13 3 -3 4 -12 1 -19z"/>
<path d="M5795 4370 c21 -24 26 -25 19 -6 -3 8 -13 17 -22 21 -13 5 -13 2 3
-15z"/>
<path d="M5835 4330 c3 -5 12 -7 20 -3 21 7 19 13 -6 13 -11 0 -18 -4 -14 -10z"/>
<path d="M6664 3796 c-86 -96 -225 -183 -366 -230 -100 -34 -153 -41 -293 -41
-188 1 -338 49 -498 159 -59 40 -68 44 -74 29 -90 -264 -256 -517 -457 -700
l-57 -52 53 -39 c166 -122 432 -239 648 -286 179 -39 446 -53 610 -32 127 16
403 82 435 105 6 4 37 18 70 31 307 121 609 371 808 668 81 121 207 379 207
423 0 5 -215 9 -523 9 l-523 0 -40 -44z"/>
<path d="M2262 2180 c-110 -25 -135 -201 -34 -242 35 -14 122 -14 131 1 4 6 7
35 6 63 l-1 53 -42 1 c-26 1 -43 -4 -46 -12 -4 -10 4 -14 28 -14 31 0 33 -2
31 -32 -2 -18 -3 -36 -4 -40 -1 -11 -73 -3 -99 11 -28 15 -43 71 -31 117 13
46 57 73 115 70 24 -1 44 1 44 5 0 19 -51 29 -98 19z"/>
<path d="M2905 2182 c-110 -25 -126 -203 -22 -247 31 -13 38 -13 90 0 57 15
90 107 63 177 -18 50 -79 82 -131 70z m65 -37 c32 -16 43 -41 43 -95 0 -70
-57 -113 -116 -91 -29 11 -55 62 -51 99 1 15 2 32 3 38 1 15 33 50 51 57 25 9
40 8 70 -8z"/>
<path d="M4211 2176 c-45 -15 -71 -52 -76 -107 -7 -87 47 -150 122 -142 42 4
89 35 98 64 39 122 -38 221 -144 185z m70 -27 c52 -20 71 -121 32 -166 -24
-26 -47 -34 -84 -26 -70 14 -89 137 -27 184 24 19 44 21 79 8z"/>
<path d="M5161 2168 c-40 -19 -71 -72 -71 -119 0 -33 27 -87 52 -102 29 -19
86 -27 116 -16 37 14 25 29 -19 24 -52 -5 -84 10 -102 48 -18 35 -14 80 8 114
20 30 50 42 97 37 29 -2 36 0 31 11 -3 8 -13 15 -22 16 -9 0 -24 2 -33 4 -9 2
-35 -6 -57 -17z"/>
<path d="M5493 2183 c-36 -7 -81 -58 -87 -100 -14 -90 34 -156 113 -156 73 0
124 62 116 142 -8 79 -69 128 -142 114z m61 -34 c51 -24 66 -109 30 -165 -18
-26 -39 -31 -101 -25 -18 2 -43 44 -48 81 -5 39 26 106 52 113 31 8 41 7 67
-4z"/>
<path d="M7685 2184 c-6 -1 -22 -5 -37 -8 -25 -6 -39 -28 -43 -68 -2 -26 29
-55 67 -63 37 -8 68 -31 68 -51 0 -34 -80 -54 -119 -29 -6 3 -11 -2 -11 -13 0
-15 8 -21 38 -24 56 -7 99 10 113 45 19 45 -4 78 -64 95 -53 15 -73 40 -54 66
15 21 62 30 87 16 20 -11 33 -1 22 16 -7 11 -50 22 -67 18z"/>
<path d="M243 2055 l0 -126 76 3 c46 2 74 7 71 13 -5 9 -22 12 -93 14 l-28 1
3 110 c3 95 1 110 -12 110 -14 0 -16 -18 -17 -125z"/>
<path d="M607 2173 c-3 -5 -19 -44 -37 -88 -18 -44 -39 -95 -47 -113 -8 -19
-12 -36 -9 -39 12 -12 35 8 41 36 4 17 10 32 13 32 4 1 29 2 56 3 48 2 49 1
64 -36 9 -24 22 -38 32 -38 15 0 10 20 -34 125 -46 112 -65 141 -79 118z m32
-80 c8 -21 16 -44 18 -50 4 -9 -7 -12 -35 -11 l-39 1 15 49 c9 26 19 48 22 48
3 0 12 -17 19 -37z"/>
<path d="M851 2055 c0 -101 3 -125 15 -125 15 0 17 9 16 123 -1 42 0 77 2 77
1 0 33 -45 71 -100 91 -136 100 -134 100 19 0 66 -4 123 -8 127 -16 17 -23
-19 -22 -106 1 -49 -1 -87 -4 -85 -4 2 -35 46 -71 99 -90 133 -99 130 -99 -29z"/>
<path d="M1211 2055 c0 -102 3 -125 15 -125 14 0 19 27 15 83 -1 15 2 27 6 27
5 0 33 -25 63 -55 30 -30 63 -55 74 -55 16 0 6 14 -42 63 l-63 63 55 60 c38
40 51 60 41 62 -8 2 -42 -25 -74 -60 l-59 -63 1 63 c2 53 -1 62 -15 62 -16 0
-18 -13 -17 -125z"/>
<path d="M1584 2145 c-7 -19 -14 -36 -14 -38 0 -3 -10 -26 -22 -53 -12 -27
-23 -51 -23 -54 -1 -3 -7 -18 -13 -33 -15 -36 -15 -37 2 -37 8 0 21 17 29 38
15 37 16 38 64 36 26 -1 51 -2 55 -3 3 0 12 -17 18 -36 10 -31 40 -50 40 -26
0 9 -33 92 -71 178 -11 24 -19 47 -19 53 0 24 -32 7 -46 -25z m45 -52 c8 -21
16 -43 18 -49 2 -6 -12 -11 -35 -12 l-39 -2 16 50 c8 28 18 50 21 50 3 0 12
-17 19 -37z"/>
<path d="M2518 2174 c-3 -5 -5 -62 -5 -126 -1 -95 2 -118 13 -118 14 0 17 10
16 67 0 18 6 34 13 37 13 5 52 -32 87 -83 9 -13 24 -21 33 -19 13 2 9 12 -21
51 -39 50 -39 49 3 75 23 14 26 66 5 92 -15 19 -31 24 -79 28 -33 2 -63 0 -65
-4z m121 -38 c12 -8 6 -43 -10 -62 -6 -8 -28 -14 -48 -14 l-37 0 -1 44 c-1 34
3 46 16 49 16 3 62 -6 80 -17z"/>
<path d="M3190 2088 c0 -117 18 -153 77 -160 91 -11 121 29 118 157 -3 100 -3
97 -17 93 -8 -3 -12 -35 -13 -98 -2 -85 -4 -95 -25 -112 -24 -19 -73 -17 -95
4 -5 5 -10 54 -10 108 0 89 -2 100 -17 100 -16 0 -18 -11 -18 -92z"/>
<path d="M3531 2055 c1 -99 4 -125 15 -125 14 0 17 16 16 73 0 15 2 27 6 28 4
0 24 1 45 3 77 6 115 83 61 125 -20 16 -41 21 -85 21 l-59 0 1 -125z m130 78
c8 -8 4 -60 -5 -64 0 0 -22 -3 -48 -6 l-46 -5 3 49 c1 26 3 49 4 49 5 5 85
-16 92 -23z"/>
<path d="M4512 2055 c0 -100 3 -125 14 -125 8 0 14 8 15 18 1 9 2 35 3 57 l1
40 47 0 c80 1 81 26 1 29 l-48 1 -1 38 c-1 40 -1 40 74 38 31 -1 42 3 42 14 0
12 -15 15 -74 15 l-73 0 -1 -125z"/>
<path d="M5783 2055 c-1 -100 2 -125 13 -125 16 0 16 -2 15 120 l-1 95 35 -85
c20 -47 40 -95 45 -107 5 -13 13 -23 17 -23 5 0 26 44 47 98 22 53 42 100 45
104 3 4 5 -40 5 -97 -2 -84 1 -105 12 -105 8 0 14 10 15 23 0 12 1 68 2 125
l2 103 -24 -3 c-21 -3 -31 -17 -61 -90 -20 -48 -39 -90 -41 -93 -3 -2 -23 38
-45 90 -31 76 -43 95 -60 95 -19 0 -20 -6 -21 -125z"/>
<path d="M6183 2056 c0 -96 3 -126 13 -126 8 0 14 17 16 47 l3 47 47 11 c83
18 111 65 69 116 -15 19 -30 24 -83 27 l-66 4 1 -126z m128 73 c7 -12 4 -47
-5 -57 -3 -2 -25 -7 -51 -9 l-45 -6 0 46 c0 35 4 46 18 49 23 6 74 -9 83 -23z"/>
<path d="M6526 2172 c-3 -6 -38 -91 -93 -229 -3 -7 2 -13 10 -13 8 0 22 17 30
37 14 36 16 37 67 39 52 1 53 1 68 -37 10 -26 21 -39 34 -39 17 0 17 2 4 28
-7 15 -26 59 -41 97 -45 115 -49 125 -62 125 -6 0 -14 -3 -17 -8z m33 -79 c8
-21 16 -44 19 -51 3 -9 -6 -12 -29 -11 -43 3 -52 8 -41 22 5 7 13 27 17 45 9
42 18 41 34 -5z"/>
<path d="M6782 2055 c-1 -103 2 -125 14 -125 15 0 16 7 14 123 -1 42 0 77 2
77 3 0 35 -45 73 -100 92 -135 101 -134 99 18 -2 140 -1 132 -17 132 -10 0
-13 -25 -12 -101 1 -116 8 -117 -85 20 -78 114 -86 110 -88 -44z"/>
<path d="M7131 2055 c0 -103 3 -125 14 -125 18 0 16 -9 17 115 0 134 0 135
-16 135 -12 0 -14 -24 -15 -125z"/>
<path d="M7311 2055 l1 -125 79 0 c62 0 79 3 79 14 0 9 -10 14 -27 14 -16 0
-45 0 -65 1 l-37 1 2 43 1 43 49 -1 c45 -1 67 8 53 22 -3 4 -28 6 -54 6 l-49
-1 -1 39 c-2 43 -3 42 76 40 31 -1 42 3 42 14 0 12 -15 15 -75 15 l-75 0 1
-125z"/>
</g>
</svg>
